<?xml version="1.0" standalone="no"?><svg xmlns="http://www.w3.org/2000/svg" viewBox="0 0 1440 320">
<path fill="#000000" fill-opacity="0.2" d="M0,256L48,229.3C96,203,192,149,288,133.3C384,117,480,139,576,144C672,149,768,139,864,112C960,85,1056,43,1152,58.7C1248,75,1344,149,1392,186.7L1440,224L1440,320L1392,320C1344,320,1248,320,1152,320C1056,320,960,320,864,320C768,320,672,320,576,320C480,320,384,320,288,320C192,320,96,320,48,320L0,320Z"></path>
<path fill="#000000" fill-opacity="0.15" d="M0,288L48,256C96,224,192,160,288,112C384,64,480,32,576,64C672,96,768,192,864,234.7C960,277,1056,267,1152,266.7C1248,267,1344,277,1392,282.7L1440,288L1440,320L1392,320C1344,320,1248,320,1152,320C1056,320,960,320,864,320C768,320,672,320,576,320C480,320,384,320,288,320C192,320,96,320,48,320L0,320Z"></path>
</svg>