<?xml version="1.0" standalone="no"?><svg xmlns="http://www.w3.org/2000/svg" viewBox="0 0 1440 320">
<path fill="#000000" fill-opacity="0.03" d="M0,256L48,256C96,256,192,256,288,245.3C384,235,480,213,576,186.7C672,160,768,128,864,112C960,96,1056,96,1152,101.3C1248,107,1344,117,1392,122.7L1440,128L1440,0L1392,0C1344,0,1248,0,1152,0C1056,0,960,0,864,0C768,0,672,0,576,0C480,0,384,0,288,0C192,0,96,0,48,0L0,0Z"></path>
  <path fill="#000000" fill-opacity="0.02" d="M0,256L48,240C96,224,192,192,288,197.3C384,203,480,245,576,245.3C672,245,768,203,864,197.3C960,192,1056,224,1152,202.7C1248,181,1344,107,1392,69.3L1440,32L1440,0L1392,0C1344,0,1248,0,1152,0C1056,0,960,0,864,0C768,0,672,0,576,0C480,0,384,0,288,0C192,0,96,0,48,0L0,0Z"></path>

</svg>